<svg version="1.1" xmlns="http://www.w3.org/2000/svg" xmlns:xlink="http://www.w3.org/1999/xlink" width="47.30245" height="70.76504" viewBox="0,0,47.30245,70.76504"><g transform="translate(-215.29925,-126.26797)"><g data-paper-data="{&quot;isPaintingLayer&quot;:true}" fill-rule="nonzero" stroke="none" stroke-width="0.5" stroke-linecap="butt" stroke-linejoin="miter" stroke-miterlimit="10" stroke-dasharray="" stroke-dashoffset="0" style="mix-blend-mode: normal"><path d="M246.71627,132.4695c0.99499,1.37118 1.96362,2.81748 3.19097,4.25709c3.87704,4.54757 6.69053,9.04537 9.24391,14.51791c1.10781,5.87598 3.33427,12.1327 3.44729,18.12248c0.11191,5.93093 -2.67461,12.93383 -5.43628,18.07292c-2.09298,3.89477 -7.89923,10.34438 -13.0339,9.52137c-3.83429,-0.61458 -5.02792,-3.03804 -6.90933,-5.68304c-4.20636,-5.91356 -7.63307,-12.06382 -11.16834,-18.43033c-1.38924,-2.21085 -2.10357,-4.78007 -3.19662,-7.15137c-0.93517,-2.02879 -2.66109,-3.62596 -3.59911,-5.65344c-2.15322,-4.65408 -5.05833,-12.69398 -3.52776,-17.87708c0.85296,-2.88845 3.56424,-5.00043 6.03208,-6.72682c2.59244,-1.81356 5.20684,-3.59793 7.74354,-5.48867c0.93075,-0.69374 1.60388,-1.74787 2.64012,-2.27111c5.14791,-2.59939 10.7935,-0.99968 16.0791,-0.00879c0,0 2.45718,0.46072 1.99646,2.9179c-0.46072,2.45718 -2.9179,1.99646 -2.9179,1.99646c-0.19064,-0.03575 -0.38552,-0.07447 -0.58421,-0.11548z" fill="#9966ff"/><path d="M250.0778,165.83239c-2.5,0 -2.5,-2.5 -2.5,-2.5l0.41987,0.35715c-1.55405,-2.36061 -2.06078,-5.24741 -3.62075,-7.49067c-0.69945,-1.00583 -1.88436,-1.66188 -2.42645,-2.76055c-0.71526,-1.44964 -0.83188,-3.12413 -1.24783,-4.68619c0,0 -0.60634,-2.42536 1.81902,-3.0317c2.42536,-0.60634 3.0317,1.81902 3.0317,1.81902c0.27046,1.18354 0.26129,2.46833 0.81137,3.55061c0.49102,0.96608 1.60102,1.48884 2.20674,2.38745c1.57018,2.32944 1.98869,5.0788 3.58645,7.43852l0.41987,2.41635c0,0 0,2.5 -2.5,2.5z" fill="#000000"/><path d="M258.50197,172.76202c0.14067,0.46892 0.16197,0.87357 0.10526,1.22112c0.00017,0.00792 0.00016,0.01205 0.00016,0.01205l-0.07609,1.6417c-1.31123,4.95814 -4.6453,9.72247 -8.38623,13.26151c-1.11353,1.05344 -2.11002,2.40611 -3.5554,2.91655c-2.59991,0.91817 -4.93081,-0.63924 -7.04431,-1.6841c-5.2457,-2.59333 -8.43236,-6.53088 -10.04547,-12.13167c0,0 -0.65779,-2.41191 1.75412,-3.0697c0.37871,-0.10328 0.71417,-0.13089 1.01063,-0.10403c-0.00664,-0.04283 -0.00903,-0.0667 -0.00903,-0.0667l-0.2667,-2.69822c0.06157,-6.68364 -3.54032,-12.94838 -4.84515,-19.45404c0,0 -0.49029,-2.45145 1.96116,-2.94174c2.45145,-0.49029 2.94174,1.96116 2.94174,1.96116c1.35749,6.80813 4.88179,13.16191 4.93604,20.18555l0.23193,2.29005c5.21922,-0.73717 10.44269,-0.8332 15.63064,-2.25235l2.54377,-0.76334c0,0 2.39457,-0.71837 3.11293,1.6762zM241.78145,185.65872c1.053,0.5341 2.20941,1.95943 3.25168,1.4047c0.68903,-0.36672 1.06346,-1.14284 1.5926,-1.71665c2.29579,-2.48956 4.73514,-5.20637 6.15672,-8.33124c-5.8134,1.32965 -11.64383,1.25197 -17.4529,2.45874c1.33892,2.74221 3.50444,4.68944 6.4519,6.18445z" fill="#000000"/></g></g></svg>